<?xml version="1.0" encoding="UTF-8" standalone="no"?>
<svg
   viewBox="0 -0.5 256 256.00001"
   shape-rendering="crispEdges"
   version="1.1"
   id="svg5"
   sodipodi:docname="kitty.svg"
   width="256"
   height="256"
   inkscape:version="1.4.3 (0d15f75, 2025-12-25)"
   xmlns:inkscape="http://www.inkscape.org/namespaces/inkscape"
   xmlns:sodipodi="http://sodipodi.sourceforge.net/DTD/sodipodi-0.dtd"
   xmlns="http://www.w3.org/2000/svg"
   xmlns:svg="http://www.w3.org/2000/svg">
  <defs
     id="defs5" />
  <sodipodi:namedview
     id="namedview5"
     pagecolor="#ffffff"
     bordercolor="#000000"
     borderopacity="0.25"
     inkscape:showpageshadow="2"
     inkscape:pageopacity="0.0"
     inkscape:pagecheckerboard="0"
     inkscape:deskcolor="#d1d1d1"
     inkscape:zoom="1.5761719"
     inkscape:cx="70.106567"
     inkscape:cy="191.92069"
     inkscape:window-width="1920"
     inkscape:window-height="1009"
     inkscape:window-x="-8"
     inkscape:window-y="1524"
     inkscape:window-maximized="1"
     inkscape:current-layer="svg5">
    <inkscape:page
       x="0"
       y="0"
       width="256"
       height="256"
       id="page5"
       margin="0"
       bleed="0" />
  </sodipodi:namedview>
  <metadata
     id="metadata1">Made with Pixels to Svg https://codepen.io/shshaw/pen/XbxvNj</metadata>
  <path
     stroke="#ffffff"
     d="m 85.333335,13.722222 h 56.888875 m 56.88889,0 H 256 M 85.333335,42.166666 h 28.444455 m 28.44442,0 h 56.88889 m 28.44445,0 H 256 M 113.77779,70.611111 h 28.44442 m 28.44444,0 H 199.1111 M 113.77779,99.055556 H 256 M 28.444445,127.5 H 227.55555 M 2.743438e-7,155.94444 H 227.55555 M 28.444445,184.3889 h 56.88889 m 113.777765,0 h 28.44445 M 28.444445,212.83335 h 28.444446 m 142.222209,0 h 28.44445"
     id="path1"
     style="stroke-width:28.4445" />
  <path
     stroke="#ef93b5"
     d="m 113.77779,42.166666 h 28.44442 m 56.88889,0 h 28.44445 M 85.333335,70.611111 h 28.444455 m 113.77776,0 H 256"
     id="path2"
     style="stroke-width:28.4445" />
  <path
     stroke="#211d25"
     d="m 142.22221,70.611111 h 28.44444 m 28.44445,0 h 28.44445"
     id="path3"
     style="stroke-width:28.4445" />
  <path
     stroke="#eadedf"
     d="M 85.333335,99.055556 H 113.77779 M 85.333335,184.3889 h 28.444455 m 56.88886,28.44445 h 28.44445"
     id="path4"
     style="stroke-width:28.4445" />
  <path
     stroke="#b4aea4"
     d="M 2.7434379e-7,184.3889 H 28.444445 m 85.333345,0 H 199.1111 M 56.888891,212.83335 h 28.444444"
     id="path5"
     style="stroke-width:28.4445" />
</svg>
